D:\school\WTK\thesis\model\3dpredictsim\Results\batch_windlass\Pog_s1_tmt_bCst_d00_k500_WL30_ig24_act_TTC_GRF.mot
nRows=25
nColumns=19

name D:\school\WTK\thesis\model\3dpredictsim\Results\batch_windlass\Pog_s1_tmt_bCst_d00_k500_WL30_ig24_act_TTC_GRF.mot
datacolumns 19
datarows 25
range 0.0000000000 0.2868715716
endheader
time 	ground_force_vx	ground_force_vy	ground_force_vz	ground_force_px	ground_force_py	ground_force_pz	1_ground_force_vx	1_ground_force_vy	1_ground_force_vz	1_ground_force_px	1_ground_force_py	1_ground_force_pz	ground_torque_x	ground_torque_y	ground_torque_z	1_ground_torque_x	1_ground_torque_y	1_ground_torque_z
        0.0000000000	      -60.8812151839	       48.0960753850	       16.3482004225	        0.1709205341	        0.0000000000	        0.0529358781	       51.0156042658	      309.2158669459	       -4.6665354677	       -0.3459275183	        0.0000000000	       -0.0279912830	        0.0000000000	        0.0000000000	        0.0000000000	        0.0000000000	        0.0000000000	        0.0000000000	
        0.0119529821	     -131.9359933843	      138.9469462311	       53.8332560429	        0.1788990639	        0.0000000000	        0.0510755301	       24.8568998332	      214.6092003689	      -14.6371630627	       -0.3343010622	        0.0000000000	       -0.0219883652	        0.0000000000	        0.0000000000	        0.0000000000	        0.0000000000	        0.0000000000	        0.0000000000	
        0.0239059643	      -70.0085909301	      328.9220967965	       20.0331655810	        0.1848733749	        0.0000000000	        0.0491926430	       10.4186670255	      172.1457079789	      -17.3905090871	       -0.3315064394	        0.0000000000	       -0.0202889149	        0.0000000000	        0.0000000000	        0.0000000000	        0.0000000000	        0.0000000000	        0.0000000000	
        0.0358589464	      -56.5788330911	      561.9350180240	       -6.1587454284	        0.1903084638	        0.0000000000	        0.0495916290	        4.3924762047	      125.9936110804	      -14.1784658366	       -0.3313217305	        0.0000000000	       -0.0201640641	        0.0000000000	        0.0000000000	        0.0000000000	        0.0000000000	        0.0000000000	        0.0000000000	
        0.0478119286	      -95.4796594819	      801.8876114599	      -19.8975579392	        0.2002530347	        0.0000000000	        0.0518642328	       -8.2519262941	       69.7224840416	      -10.5580034484	       -0.3319683094	        0.0000000000	       -0.0201717423	        0.0000000000	        0.0000000000	        0.0000000000	        0.0000000000	        0.0000000000	        0.0000000000	
        0.0597649107	     -125.7106381673	      907.4243005788	      -25.3433476930	        0.2073581503	        0.0000000000	        0.0534306064	      -16.3329727503	       18.6180106527	       -1.3596677339	       -0.3357567634	        0.0000000000	       -0.0191157043	        0.0000000000	        0.0000000000	        0.0000000000	        0.0000000000	        0.0000000000	        0.0000000000	
        0.0717178929	     -128.9356122188	      920.5546953733	      -27.8140671493	        0.2129178983	        0.0000000000	        0.0544818568	        0.4418979367	       -0.3815653448	       -0.0415749645	        0.0000000000	        0.0000000000	        0.0000000000	        0.0000000000	        0.0000000000	        0.0000000000	        0.0000000000	        0.0000000000	        0.0000000000	
        0.0836708750	     -127.2454322818	      890.8016921844	      -25.0396615628	        0.2178294209	        0.0000000000	        0.0551392467	       -1.8309565732	        1.2759315920	        0.2467174711	        0.0000000000	        0.0000000000	        0.0000000000	        0.0000000000	        0.0000000000	        0.0000000000	        0.0000000000	        0.0000000000	        0.0000000000	
        0.0956238572	     -117.0102307541	      848.7268801008	      -21.3186954984	        0.2223004755	        0.0000000000	        0.0551614575	       -0.8659755058	        0.5289332675	        0.1110632726	        0.0000000000	        0.0000000000	        0.0000000000	        0.0000000000	        0.0000000000	        0.0000000000	        0.0000000000	        0.0000000000	        0.0000000000	
        0.1075768393	     -103.3319754892	      801.7803642003	      -19.6219788300	        0.2277246952	        0.0000000000	        0.0549001482	       -0.6229192600	        0.3641717152	        0.0698989941	        0.0000000000	        0.0000000000	        0.0000000000	        0.0000000000	        0.0000000000	        0.0000000000	        0.0000000000	        0.0000000000	        0.0000000000	
        0.1195298215	      -89.8006800444	      756.0909167905	      -19.8465562390	        0.2330750703	        0.0000000000	        0.0545061498	       -0.6635980569	        0.3769640559	        0.0634108052	        0.0000000000	        0.0000000000	        0.0000000000	        0.0000000000	        0.0000000000	        0.0000000000	        0.0000000000	        0.0000000000	        0.0000000000	
        0.1314828036	      -78.3636329768	      714.6328393513	      -20.1608066711	        0.2378083945	        0.0000000000	        0.0541687882	       -0.4279497735	        0.2343431244	        0.0361539554	        0.0000000000	        0.0000000000	        0.0000000000	        0.0000000000	        0.0000000000	        0.0000000000	        0.0000000000	        0.0000000000	        0.0000000000	
        0.1434357858	      -68.0727579549	      681.1605154896	      -20.7048842176	        0.2420470086	        0.0000000000	        0.0539297252	       -0.2496231410	        0.1308863222	        0.0198598870	        0.0000000000	        0.0000000000	        0.0000000000	        0.0000000000	        0.0000000000	        0.0000000000	        0.0000000000	        0.0000000000	        0.0000000000	
        0.1553887679	      -58.3658290404	      654.6832047214	      -21.1912947068	        0.2459430496	        0.0000000000	        0.0537803630	       -0.1597527503	        0.0801592755	        0.0124779403	        0.0000000000	        0.0000000000	        0.0000000000	        0.0000000000	        0.0000000000	        0.0000000000	        0.0000000000	        0.0000000000	        0.0000000000	
        0.1673417501	      -49.2196902813	      632.9136992507	      -21.5323483829	        0.2496983426	        0.0000000000	        0.0536910194	       -0.1193963065	        0.0575761648	        0.0092566877	        0.0000000000	        0.0000000000	        0.0000000000	        0.0000000000	        0.0000000000	        0.0000000000	        0.0000000000	        0.0000000000	        0.0000000000	
        0.1792947322	      -40.9446575458	      614.8327233119	      -21.6048046465	        0.2535154031	        0.0000000000	        0.0536302060	       -0.1053146823	        0.0491167194	        0.0080916200	        0.0000000000	        0.0000000000	        0.0000000000	        0.0000000000	        0.0000000000	        0.0000000000	        0.0000000000	        0.0000000000	        0.0000000000	
        0.1912477144	      -33.6999763630	      600.1430065290	      -21.4361754205	        0.2574165872	        0.0000000000	        0.0535740297	       -0.1096654716	        0.0497355638	        0.0082422110	        0.0000000000	        0.0000000000	        0.0000000000	        0.0000000000	        0.0000000000	        0.0000000000	        0.0000000000	        0.0000000000	        0.0000000000	
        0.2032006965	      -27.0482472928	      588.4424964433	      -21.1112025875	        0.2614419827	        0.0000000000	        0.0535026461	       -0.1338426646	        0.0592525802	        0.0097275197	        0.0000000000	        0.0000000000	        0.0000000000	        0.0000000000	        0.0000000000	        0.0000000000	        0.0000000000	        0.0000000000	        0.0000000000	
        0.2151536787	      -21.3339276637	      580.0388942948	      -20.9069493304	        0.2657954876	        0.0000000000	        0.0533751633	       -0.1862555036	        0.0806675663	        0.0129667645	        0.0000000000	        0.0000000000	        0.0000000000	        0.0000000000	        0.0000000000	        0.0000000000	        0.0000000000	        0.0000000000	        0.0000000000	
        0.2271066608	      -16.9041764483	      574.6030956102	      -20.8599017874	        0.2703580887	        0.0000000000	        0.0531784242	       -0.2810932612	        0.1192702620	        0.0186978654	        0.0000000000	        0.0000000000	        0.0000000000	        0.0000000000	        0.0000000000	        0.0000000000	        0.0000000000	        0.0000000000	        0.0000000000	
        0.2390596430	      -12.9785450918	      571.3435581644	      -20.6404464277	        0.2749551296	        0.0000000000	        0.0529353363	       -0.4320437128	        0.1798679527	        0.0274493853	        0.0000000000	        0.0000000000	        0.0000000000	        0.0000000000	        0.0000000000	        0.0000000000	        0.0000000000	        0.0000000000	        0.0000000000	
        0.2510126251	       -9.2289668062	      569.0987914733	      -20.7755414491	        0.2795902209	        0.0000000000	        0.0526471893	       -0.6396259088	        0.2618133358	        0.0387286515	        0.0000000000	        0.0000000000	        0.0000000000	        0.0000000000	        0.0000000000	        0.0000000000	        0.0000000000	        0.0000000000	        0.0000000000	
        0.2629656073	       -5.9024477734	      566.8564860821	      -20.9577743034	        0.2842821248	        0.0000000000	        0.0523188277	       -0.8816345859	        0.3557641059	        0.0507956752	        0.0000000000	        0.0000000000	        0.0000000000	        0.0000000000	        0.0000000000	        0.0000000000	        0.0000000000	        0.0000000000	        0.0000000000	
        0.2749185894	       -3.0071948371	      564.5984250887	      -21.0536429912	        0.2890011176	        0.0000000000	        0.0519590143	       -1.1154492774	        0.4450717294	        0.0610380506	        0.0000000000	        0.0000000000	        0.0000000000	        0.0000000000	        0.0000000000	        0.0000000000	        0.0000000000	        0.0000000000	        0.0000000000	
        0.2868715716	       -0.3836639425	      562.4950928676	      -20.9852187026	        0.2937157188	        0.0000000000	        0.0515758856	       -1.2971787359	        0.5132481102	        0.0671731784	        0.0000000000	        0.0000000000	        0.0000000000	        0.0000000000	        0.0000000000	        0.0000000000	        0.0000000000	        0.0000000000	        0.0000000000	
